<?xml version="1.0" encoding="utf-8"?>
<svg width="20px" height="20px" viewBox="0 0 20 20" version="1.1" xmlns:xlink="http://www.w3.org/1999/xlink" xmlns="http://www.w3.org/2000/svg">
  <desc>Created with Lunacy</desc>
  <g id="australia">
    <path d="M20 10C20 15.5228 15.5228 20 10 20C4.47719 20 0 15.5228 0 10C0 10.0023 10 0.00113281 10 0C15.5228 0 20 4.47719 20 10Z" id="Shape" fill="#0052B4" stroke="none" />
    <g id="Group">
      <path d="M0.0043 0C0.0029 0 0.0014 0.0001 0 0.0001L0.0043 0L0.0043 0Z" transform="translate(9.998321 0)" id="Shape" fill="#F0F0F0" stroke="none" />
      <path d="M0 0.0685L0.0685 0.0685C0.0685 0.0453 0.0685 0.0231 0.0685 0C0.0457 0.0229 0.0229 0.0457 0 0.0685Z" transform="translate(9.973242 9.973242)" id="Shape" fill="#F0F0F0" stroke="none" />
      <path d="M10 5.21738C10 3.45781 10 2.3048 10 0L9.99832 0C4.47625 0.000898437 0 4.47766 0 9.99996L5.21738 9.99996L5.21738 7.06199L8.15535 9.99996L9.97328 9.99996C9.98223 9.99105 9.99113 9.98215 10 9.9732C10 9.29949 10 8.69836 10 8.15539L7.06203 5.21738L10 5.21738Z" transform="translate(0 3.90625E-05)" id="Shape" fill="#F0F0F0" stroke="none" />
    </g>
    <g id="Group" transform="translate(1.289063 1.289063)">
      <path d="M3.75484 2.77556e-16C2.19082 0.890586 0.890586 2.19082 0 3.75484L0 8.69566L2.60871 8.69566L2.60871 2.60875L2.60871 2.60871L8.69566 2.60871C8.69566 1.78594 8.69566 1.00211 8.69566 0L3.75484 2.77556e-16Z" transform="translate(0.01527344 0.01527344)" id="Shape" fill="#D80027" stroke="none" />
      <path d="M4.78258 3.55283L1.22973 1.73611e-05L0 1.73611e-05C0 -2.17014e-05 0 1.73611e-05 0 1.73611e-05L4.78254 4.78256L4.78258 4.78256C4.78258 4.78256 4.78258 3.9347 4.78258 3.55283Z" transform="translate(3.928359 3.928381)" id="Shape" fill="#D80027" stroke="none" />
    </g>
    <g id="Group" transform="translate(3.789063 4.335938)">
      <path d="M2.2298 0L2.77863 1.14758L4.01797 0.861133L3.46297 2.00574L4.45961 2.79609L3.21871 3.07578L3.22219 4.34781L2.2298 3.55199L1.23746 4.34781L1.24094 3.07578L0 2.79609L0.99668 2.00574L0.441602 0.861133L1.68102 1.14758L2.2298 0Z" transform="translate(0.0121875 7.403203)" id="Shape" fill="#F0F0F0" stroke="none" />
      <path d="M1.11488 0L1.3893 0.573789L2.00898 0.430547L1.73145 1.00285L2.2298 1.39805L1.60934 1.53789L1.61105 2.17391L1.11488 1.77598L0.618711 2.17391L0.62043 1.53789L0 1.39805L0.49832 1.00285L0.22082 0.430547L0.840469 0.573789L1.11488 0Z" transform="translate(10.06809 9.577109)" id="Shape" fill="#F0F0F0" stroke="none" />
      <path d="M1.11492 0L1.3893 0.573828L2.00898 0.430547L1.73148 1.00285L2.2298 1.39805L1.60938 1.53789L1.61105 2.17391L1.11492 1.77598L0.61875 2.17391L0.62043 1.53789L0 1.39805L0.49832 1.00285L0.22082 0.430547L0.840508 0.573828L1.11492 0Z" transform="translate(7.515274 3.490156)" id="Shape" fill="#F0F0F0" stroke="none" />
      <path d="M1.11488 0L1.3893 0.573828L2.00898 0.430586L1.73148 1.00289L2.22977 1.39805L1.60934 1.53793L1.61105 2.17395L1.11488 1.77602L0.618711 2.17395L0.62043 1.53793L0 1.39805L0.498281 1.00289L0.22082 0.430586L0.840469 0.573828L1.11488 0Z" transform="translate(10.06809 0.011875)" id="Shape" fill="#F0F0F0" stroke="none" />
      <path d="M1.11492 0L1.3893 0.573828L2.00898 0.430547L1.73148 1.00285L2.2298 1.39805L1.60934 1.53793L1.61105 2.17391L1.11492 1.77602L0.61875 2.17391L0.62043 1.53793L0 1.39805L0.49832 1.00285L0.22082 0.430547L0.840469 0.573828L1.11492 0Z" transform="translate(12.29789 2.620586)" id="Shape" fill="#F0F0F0" stroke="none" />
      <path d="M0.914336 0L1.13016 0.664297L1.82867 0.664297L1.26355 1.07488L1.47945 1.73914L0.914336 1.32859L0.349258 1.73914L0.565078 1.07488L0 0.664297L0.698477 0.664297L0.914336 0Z" transform="translate(10.90402 5.664063)" id="Shape" fill="#F0F0F0" stroke="none" />
    </g>
  </g>
</svg>