<?xml version="1.0" encoding="utf-8"?>
<svg width="20px" height="20px" viewBox="0 0 20 20" version="1.1" xmlns:xlink="http://www.w3.org/1999/xlink" xmlns="http://www.w3.org/2000/svg">
  <desc>Created with Lunacy</desc>
  <g id="checked">
    <path d="M0 10C0 4.47596 4.47596 0 10 0C15.524 0 20 4.47596 20 10C20 15.524 15.524 20 10 20C4.47596 20 0 15.524 0 10ZM8.69231 13.6923L15.1202 7.23558C15.1971 7.15865 15.1971 7.03846 15.1106 6.95673L14.2692 6.08654C14.2356 6.04808 14.1875 6.02885 14.1346 6.02885C14.0865 6.02885 14.0385 6.04808 14 6.08654L8.13461 11.9952L6 9.86058C5.96154 9.82212 5.91346 9.80289 5.86538 9.80289C5.81731 9.80289 5.76923 9.82212 5.73077 9.86058L4.875 10.7163C4.79808 10.7933 4.79808 10.9135 4.875 10.9904L7.56731 13.6827C7.74038 13.8558 7.94711 13.9567 8.12981 13.9567C8.38461 13.9567 8.60577 13.774 8.6875 13.6923L8.69231 13.6923Z" id="Shape" fill="#249DF6" fill-rule="evenodd" stroke="none" />
  </g>
</svg>