<?xml version="1.0" encoding="utf-8"?>
<svg width="20px" height="20px" viewBox="0 0 20 20" version="1.1" xmlns:xlink="http://www.w3.org/1999/xlink" xmlns="http://www.w3.org/2000/svg">
  <desc>Created with Lunacy</desc>
  <g id="india">
    <path d="M10 20C15.5228 20 20 15.5228 20 10C20 4.47715 15.5228 0 10 0C4.47715 0 0 4.47715 0 10C0 15.5228 4.47715 20 10 20Z" id="Oval" fill="#F0F0F0" stroke="none" />
    <path d="M9.00773 0C5.04313 0 1.6175 2.30723 0 5.65219L18.0154 5.65219C16.398 2.30723 12.9723 0 9.00773 0Z" transform="translate(0.9922656 0)" id="Shape" fill="#FF9811" stroke="none" />
    <path d="M9.00773 5.65219C12.9723 5.65219 16.398 3.34496 18.0155 0L0 0C1.6175 3.34496 5.04312 5.65219 9.00773 5.65219Z" transform="translate(0.9922656 14.34781)" id="Shape" fill="#6DA544" stroke="none" />
    <path d="M3.47824 6.95648C5.39922 6.95648 6.95648 5.39922 6.95648 3.47824C6.95648 1.55726 5.39922 0 3.47824 0C1.55726 0 0 1.55726 0 3.47824C0 5.39922 1.55726 6.95648 3.47824 6.95648Z" transform="translate(6.521758 6.521758)" id="Oval" fill="#0052B4" stroke="none" />
    <path d="M2.17391 4.34781C3.37452 4.34781 4.34781 3.37452 4.34781 2.17391C4.34781 0.973291 3.37452 0 2.17391 0C0.973291 0 0 0.973291 0 2.17391C0 3.37452 0.973291 4.34781 2.17391 4.34781Z" transform="translate(7.826094 7.826094)" id="Oval" fill="#F0F0F0" stroke="none" />
    <path d="M2.32316 0L2.99383 1.52102L4.64633 1.34129L3.66445 2.68258L4.64633 4.02387L2.99383 3.84414L2.32316 5.36516L1.6525 3.84414L0 4.02383L0.981875 2.68258L0 1.34129L1.6525 1.52102L2.32316 0Z" transform="translate(7.676836 7.317422)" id="Shape" fill="#0052B4" stroke="none" />
  </g>
</svg>