<?xml version="1.0" encoding="utf-8"?>
<svg width="20px" height="20px" viewBox="0 0 20 20" version="1.1" xmlns:xlink="http://www.w3.org/1999/xlink" xmlns="http://www.w3.org/2000/svg">
  <desc>Created with Lunacy</desc>
  <g id="russia">
    <path d="M10 20C15.5228 20 20 15.5228 20 10C20 4.47715 15.5228 0 10 0C4.47715 0 0 4.47715 0 10C0 15.5228 4.47715 20 10 20Z" id="Oval" fill="#F0F0F0" stroke="none" />
    <path d="M19.378 6.95648C19.78 5.87316 20 4.70145 20 3.47824C20 2.25504 19.78 1.08332 19.378 0L0.621992 0C0.220039 1.08332 0 2.25504 0 3.47824C0 4.70145 0.220039 5.87316 0.621992 6.95648L10 7.82605L19.378 6.95648Z" transform="translate(0 6.521758)" id="Shape" fill="#0052B4" stroke="none" />
    <path d="M9.37801 6.52176C13.6777 6.52176 17.3431 3.80801 18.756 0L0 0C1.41293 3.80801 5.07836 6.52176 9.37801 6.52176Z" transform="translate(0.6219922 13.47824)" id="Shape" fill="#D80027" stroke="none" />
  </g>
</svg>