<?xml version="1.0" encoding="utf-8"?>
<svg width="20px" height="20px" viewBox="0 0 20 20" version="1.1" xmlns:xlink="http://www.w3.org/1999/xlink" xmlns="http://www.w3.org/2000/svg">
  <desc>Created with Lunacy</desc>
  <g id="singapore">
    <path d="M10 20C15.5228 20 20 15.5228 20 10C20 4.47715 15.5228 0 10 0C4.47715 0 0 4.47715 0 10C0 15.5228 4.47715 20 10 20Z" id="Oval" fill="#F0F0F0" stroke="none" />
    <path d="M0 10C0 4.47719 4.47719 0 10 0C15.5228 0 20 4.47719 20 10" id="Shape" fill="#D80027" stroke="none" />
    <g id="Group" transform="translate(4.782715 2.173889)">
      <path d="M1.30438 3.04344C1.30438 1.58648 2.32832 0.369375 3.69566 0.0707422C3.48551 0.0248828 3.2675 0 3.04348 0C1.36258 0 0 1.36258 0 3.04348C0 4.72438 1.36258 6.08695 3.04348 6.08695C3.26742 6.08695 3.48547 6.06207 3.69566 6.01617C2.32832 5.71754 1.30438 4.50043 1.30438 3.04344Z" id="Shape" fill="#F0F0F0" stroke="none" />
      <path d="M0.914297 0L1.13016 0.664258L1.82863 0.664258L1.26352 1.07484L1.47938 1.7391L0.914297 1.32859L0.349219 1.7391L0.565078 1.07484L0 0.664258L0.698438 0.664258L0.914297 0Z" transform="translate(4.303223 0.2174072)" id="Shape" fill="#F0F0F0" stroke="none" />
      <path d="M0.914375 0L1.1302 0.664297L1.82867 0.664297L1.26359 1.07484L1.47945 1.7391L0.914375 1.32859L0.349219 1.7391L0.565117 1.07484L0 0.664297L0.698477 0.664297L0.914375 0Z" transform="translate(2.608398 1.521729)" id="Shape" fill="#F0F0F0" stroke="none" />
      <path d="M0.914297 0L1.1302 0.664297L1.82863 0.664297L1.26352 1.07484L1.47941 1.7391L0.914297 1.32859L0.349219 1.7391L0.565078 1.07484L0 0.664297L0.698438 0.664297L0.914297 0Z" transform="translate(5.997559 1.521729)" id="Shape" fill="#F0F0F0" stroke="none" />
      <path d="M0.914297 0L1.13016 0.664297L1.82859 0.664297L1.26352 1.07484L1.47938 1.7391L0.914297 1.32859L0.349219 1.7391L0.565078 1.07484L0 0.664297L0.698398 0.664297L0.914297 0Z" transform="translate(5.345215 3.478271)" id="Shape" fill="#F0F0F0" stroke="none" />
      <path d="M0.914336 0L1.13016 0.664297L1.82867 0.664297L1.26355 1.07484L1.47945 1.7391L0.914336 1.32859L0.349219 1.7391L0.565078 1.07484L0 0.664297L0.698477 0.664297L0.914336 0Z" transform="translate(3.260742 3.478271)" id="Shape" fill="#F0F0F0" stroke="none" />
    </g>
  </g>
</svg>