<?xml version="1.0" encoding="utf-8"?>
<svg width="20px" height="20px" viewBox="0 0 20 20" version="1.1" xmlns:xlink="http://www.w3.org/1999/xlink" xmlns="http://www.w3.org/2000/svg">
  <desc>Created with Lunacy</desc>
  <g id="sweden">
    <path d="M10 20C15.5228 20 20 15.5228 20 10C20 4.47715 15.5228 0 10 0C4.47715 0 0 4.47715 0 10C0 15.5228 4.47715 20 10 20Z" id="Oval" fill="#FFDA44" stroke="none" />
    <g id="Group" transform="translate(0.078125 0)">
      <path d="M3.90625e-05 8.69566L12.0893 8.69566C11.4501 3.78914 7.25465 0 2.17391 0C1.42727 0 0.699961 0.0825391 0 0.237695L0 8.69566L3.90625e-05 8.69566Z" transform="translate(7.747969 0)" id="Shape" fill="#0052B4" stroke="none" />
      <path d="M5.13273 7.47973L5.13273 0C2.38687 1.4982 0.421211 4.24629 0 7.47977L5.13273 7.47977L5.13273 7.47973Z" transform="translate(0.006523437 1.215898)" id="Shape" fill="#0052B4" stroke="none" />
      <path d="M5.1327 0L0 0C0.421211 3.23348 2.38687 5.98156 5.13273 7.47973L5.1327 0L5.1327 0Z" transform="translate(0.006523437 11.30434)" id="Shape" fill="#0052B4" stroke="none" />
      <path d="M0 3.90625e-05L0 8.45797C0.699961 8.61313 1.42727 8.69566 2.17391 8.69566C7.25465 8.69566 11.4501 4.90652 12.0893 0L0 0L0 3.90625e-05Z" transform="translate(7.747969 11.30434)" id="Shape" fill="#0052B4" stroke="none" />
    </g>
  </g>
</svg>