<?xml version="1.0" encoding="utf-8"?>
<svg width="20px" height="20px" viewBox="0 0 20 20" version="1.1" xmlns:xlink="http://www.w3.org/1999/xlink" xmlns="http://www.w3.org/2000/svg">
  <desc>Created with Lunacy</desc>
  <g id="united-states">
    <path d="M10 20C15.5228 20 20 15.5228 20 10C20 4.47715 15.5228 0 10 0C4.47715 0 0 4.47715 0 10C0 15.5228 4.47715 20 10 20Z" id="Oval" fill="#F0F0F0" stroke="none" />
    <g id="Group" transform="translate(0.3125 2.148438)">
      <path d="M0 2.60871L10.4348 2.60871C10.4348 1.70613 10.3145 0.831758 10.0903 0L0 0L0 2.60871Z" transform="translate(9.252734 5.242852)" id="Shape" fill="#D80027" stroke="none" />
      <path d="M0 2.60871L8.96703 2.60871C8.35488 1.6098 7.57219 0.726875 6.65961 0L0 0L0 2.60871Z" transform="translate(9.252734 0.02546875)" id="Shape" fill="#D80027" stroke="none" />
      <path d="M6.22484 2.17391C8.57832 2.17391 10.7415 1.36047 12.4497 0L0 0C1.7082 1.36047 3.87137 2.17391 6.22484 2.17391Z" transform="translate(3.462656 15.67766)" id="Shape" fill="#D80027" stroke="none" />
      <path d="M1.12324 2.60871L18.1878 2.60871C18.6792 1.8068 19.0604 0.930234 19.311 0L0 0C0.250664 0.930234 0.631797 1.8068 1.12324 2.60871Z" transform="translate(0.03199219 10.46023)" id="Shape" fill="#D80027" stroke="none" />
    </g>
    <path d="M4.63219 1.56164L5.54348 1.56164L4.69582 2.17746L5.01961 3.17391L4.17199 2.55809L3.32437 3.17391L3.60406 2.31309C2.85773 2.93477 2.20359 3.66313 1.66453 4.47469L1.95652 4.47469L1.41695 4.86668C1.33289 5.00691 1.25227 5.14937 1.175 5.29395L1.43266 6.08695L0.951953 5.7377C0.832461 5.99086 0.723164 6.24973 0.624922 6.51398L0.908789 7.38773L1.95652 7.38773L1.10887 8.00356L1.43266 9L0.585039 8.38418L0.0773047 8.75309C0.0264844 9.1616 0 9.57769 0 10L10 10L10 0C8.02453 0 6.18301 0.573047 4.63219 1.56164ZM8.60656 3.17391L8.28277 2.17746L9.13043 1.56164L8.0827 1.56164L7.75894 0.565195L7.43519 1.56164L6.38746 1.56164L7.23512 2.17746L6.91133 3.17391L7.75894 2.55809L8.60656 3.17391ZM4.69582 5.09051L5.01961 6.08695L4.17199 5.47113L3.32437 6.08695L3.64816 5.09051L2.80051 4.47469L3.84824 4.47469L4.17199 3.47824L4.49574 4.47469L5.54348 4.47469L4.69582 5.09051ZM8.28277 5.09051L8.60656 6.08695L7.75894 5.47113L6.91133 6.08695L7.23512 5.09051L6.38746 4.47469L7.43519 4.47469L7.75894 3.47824L8.0827 4.47469L9.13043 4.47469L8.28277 5.09051ZM4.17199 8.38418L5.01961 9L4.69582 8.00356L5.54348 7.38773L4.49574 7.38773L4.17199 6.39129L3.84824 7.38773L2.80051 7.38773L3.64816 8.00356L3.32437 9L4.17199 8.38418ZM7.75894 8.38418L8.60656 9L8.28277 8.00356L9.13043 7.38773L8.0827 7.38773L7.75894 6.39129L7.43519 7.38773L6.38746 7.38773L7.23512 8.00356L6.91133 9L7.75894 8.38418Z" id="Shape" fill="#0052B4" fill-rule="evenodd" stroke="none" />
  </g>
</svg>