<?xml version="1.0" encoding="utf-8"?>
<svg width="254px" height="384px" viewBox="0 0 254 384" version="1.1" xmlns:xlink="http://www.w3.org/1999/xlink" xmlns="http://www.w3.org/2000/svg">
  <desc>Created with Lunacy</desc>
  <defs>
    <linearGradient x1="0.499998152" y1="3.60805666E-06" x2="0.499998152" y2="0.99999845" id="gradient_1">
      <stop offset="0" stop-color="#004E8F" />
      <stop offset="1" stop-color="#00354F" />
    </linearGradient>
    <linearGradient x1="0.178127229" y1="0.8575035" x2="0.7680379" y2="-0.03457612" id="gradient_2">
      <stop offset="0" stop-color="#0086FD" />
      <stop offset="1" stop-color="#00B9FB" />
    </linearGradient>
    <linearGradient x1="-7.498441E-07" y1="0.499996" x2="0.9999961" y2="0.499996" id="gradient_3">
      <stop offset="0" stop-color="#004E8F" />
      <stop offset="1" stop-color="#00354F" />
    </linearGradient>
    <linearGradient x1="0.4235634" y1="0.892040253" x2="0.933149159" y2="0.0580982752" id="gradient_4">
      <stop offset="0" stop-color="#0086FD" />
      <stop offset="1" stop-color="#00B9FB" />
    </linearGradient>
    <linearGradient x1="0.18505244" y1="1.07143366" x2="0.5964311" y2="0.28251797" id="gradient_5">
      <stop offset="0" stop-color="#0086FD" />
      <stop offset="1" stop-color="#00B9FB" />
    </linearGradient>
  </defs>
  <g id="Group-118" transform="translate(2.410156 2.409973)">
    <path d="M57.6817 0L57.6817 26.1229L0 26.1229" transform="translate(60.52588 91.77042)" id="Stroke-1" fill="none" stroke="#EFEFEF" stroke-width="2.06569052" stroke-linecap="round" stroke-linejoin="round" stroke-dasharray="5,508508 5,508508" />
    <path d="M0 51.3477L0 68.6433L38.6759 68.6467L38.6759 0" transform="translate(169.2637 126.4787)" id="Stroke-2" fill="none" stroke="#EFEFEF" stroke-width="2.06569052" stroke-linecap="round" stroke-linejoin="round" stroke-dasharray="5,508508 5,508508" />
    <path d="M0 0L2.75425 0" transform="translate(134.228 82.79776)" id="Stroke-3" fill="none" stroke="#EFEFEF" stroke-width="2.06569052" stroke-linecap="round" stroke-linejoin="round" />
    <path d="M0 0L2.75425 0L2.75425 2.75275" transform="translate(140.6611 82.79776)" id="Stroke-4" fill="none" stroke="#EFEFEF" stroke-width="2.06569052" stroke-linecap="round" stroke-linejoin="round" />
    <path d="M0 0L0 28.3127L0 51.2101" transform="translate(143.4155 90.94109)" id="Stroke-5" fill="none" stroke="#EFEFEF" stroke-width="2.06569052" stroke-linecap="round" stroke-linejoin="round" stroke-dasharray="5,393518 5,393518" />
    <path d="M0 0L0 2.75275L2.75425 2.75275" transform="translate(143.4155 144.8466)" id="Stroke-6" fill="none" stroke="#EFEFEF" stroke-width="2.06569052" stroke-linecap="round" stroke-linejoin="round" />
    <path d="M0 0L10.1701 0" transform="translate(152.9497 147.5993)" id="Stroke-7" fill="none" stroke="#EFEFEF" stroke-width="2.06569052" stroke-linecap="round" stroke-linejoin="round" stroke-dasharray="6,779596 6,779596" />
    <path d="M0 0L2.75425 0L2.75425 2.75275" transform="translate(166.5093 147.5993)" id="Stroke-8" fill="none" stroke="#EFEFEF" stroke-width="2.06569052" stroke-linecap="round" stroke-linejoin="round" />
    <path d="M0 0L0 2.75275" transform="translate(169.2637 153.6814)" id="Stroke-9" fill="none" stroke="#EFEFEF" stroke-width="2.06569052" stroke-linecap="round" stroke-linejoin="round" />
    <path d="M44.3628 8.32638C48.6732 13.0336 51.0618 19.0724 51.0694 25.4939C51.0763 34.0474 46.8292 41.9939 39.704 46.752C37.0833 48.5028 34.1893 49.7381 31.1506 50.4194C30.6438 50.5329 30.1302 50.6224 29.6158 50.7057C29.5153 50.7208 29.4168 50.7456 29.3163 50.76C28.0803 50.9445 26.8258 51.0381 25.5595 51.0387C24.7284 51.0401 23.9007 50.9961 23.08 50.9162C23.0166 50.9101 22.9533 50.9066 22.8892 50.8997C22.1614 50.8233 21.4405 50.7091 20.723 50.5708C20.5619 50.5398 20.3987 50.5116 20.2376 50.4779C19.6103 50.3437 18.9927 50.1799 18.3791 50.0003C18.1781 49.9425 17.977 49.8895 17.778 49.8255C17.1817 49.6348 16.5971 49.416 16.0167 49.182C15.8142 49.1001 15.6118 49.023 15.4121 48.9356C14.8234 48.6824 14.2485 48.4009 13.6831 48.1043C13.522 48.0204 13.363 47.9371 13.2046 47.8497C12.6035 47.5187 12.0161 47.1615 11.4412 46.7802C11.3489 46.719 11.2539 46.6571 11.1616 46.5931C10.544 46.1726 9.94493 45.7266 9.36516 45.2518C9.33418 45.227 9.30457 45.2022 9.27496 45.1775C8.39773 44.4549 7.56112 43.6765 6.78236 42.8342C6.73485 42.7832 6.7135 42.7179 6.67563 42.6614C2.54976 38.1325 0.00689399 32.1377 8.35573e-06 25.5455C-0.00687728 16.9914 4.24225 9.04416 11.3654 4.28534C15.5574 1.48649 20.4483 0.00481731 25.5072 0L25.5347 0C26.2962 0 27.0557 0.0406031 27.8097 0.109422C27.9219 0.118368 28.0356 0.124562 28.1471 0.135573C28.7882 0.201639 29.4237 0.300738 30.0558 0.414289C30.3615 0.468656 30.6659 0.52784 30.9675 0.594594C31.4219 0.693693 31.8729 0.805868 32.3205 0.93043C32.861 1.07839 33.3926 1.24975 33.9207 1.43143C34.1576 1.5147 34.3965 1.59522 34.6306 1.68537C35.271 1.92899 35.8969 2.20358 36.5173 2.49881C36.6667 2.56969 36.8182 2.63713 36.9676 2.71146C37.327 2.89245 37.6844 3.08102 38.0363 3.27921C38.4549 3.51389 38.8667 3.76095 39.2729 4.02039C39.5449 4.19519 39.8148 4.37618 40.0827 4.562C40.5536 4.8882 41.015 5.22885 41.4646 5.58671C41.6354 5.72366 41.8013 5.86405 41.968 6.00513C42.4802 6.43455 42.9788 6.88188 43.458 7.35397C43.4938 7.38907 43.5337 7.42004 43.5716 7.45514C43.637 7.52189 43.6928 7.59484 43.7575 7.66159C43.9338 7.84121 44.1135 8.01739 44.2864 8.2032C44.3201 8.24105 44.3339 8.28716 44.3628 8.32638ZM39.704 7.74693C40.1026 8.06349 40.4793 8.40896 40.8566 8.75306C41.0053 8.88932 41.1596 9.01939 41.3062 9.15909C40.3739 10.0627 39.359 10.863 38.2952 11.5863C35.9988 8.07932 32.8576 5.13457 29.0973 3.09272C32.8576 3.69488 36.423 5.22197 39.4382 7.55011C39.5263 7.61893 39.6186 7.67811 39.704 7.74693ZM13.1357 6.46621C12.5511 6.84609 11.9845 7.25694 11.4343 7.69118C11.382 7.73248 11.331 7.77514 11.2801 7.81643C10.743 8.24793 10.2197 8.70144 9.72253 9.18249C10.65 10.0771 11.6615 10.872 12.7178 11.5905C14.579 8.73792 17.011 6.23704 19.9394 4.28259C20.5764 3.8566 21.2367 3.46847 21.9087 3.10235C21.7228 3.13332 21.5348 3.15052 21.3503 3.18493C21.2443 3.20489 21.1382 3.22278 21.0329 3.24412C18.9665 3.66391 16.969 4.36655 15.0981 5.3307L14.9494 5.40915C14.3359 5.73054 13.7348 6.07876 13.1516 6.45726C13.1468 6.45933 13.1419 6.46277 13.1357 6.46621ZM26.9063 5.08984C30.6101 6.89702 33.699 9.66559 35.9162 13.0178C33.1371 14.4506 30.0689 15.2895 26.918 15.4883L26.9063 5.08984ZM15.1078 13.0274C17.8944 14.4616 20.9695 15.2977 24.1293 15.4918L24.1197 5.11323C23.2142 5.55712 22.3281 6.03816 21.488 6.59903C18.9073 8.32294 16.759 10.5203 15.1078 13.0274ZM42.4403 24.11L48.2118 24.1038C47.9192 19.3511 46.1916 14.8772 43.1998 11.203C42.1229 12.2429 40.9523 13.1857 39.7122 14.0198C41.2883 17.118 42.2392 20.5438 42.4403 24.11ZM7.84137 11.234C8.92104 12.2683 10.0868 13.1967 11.3179 14.0184C9.74318 17.1345 8.80605 20.5699 8.61532 24.1423L2.83138 24.1485C3.11645 19.378 4.89225 14.88 7.84137 11.234ZM26.9208 18.2927L26.9277 24.1251L39.6537 24.112C39.4602 21.0503 38.6436 18.1083 37.3078 15.434C34.0935 17.1166 30.566 18.0931 26.9208 18.2927ZM24.1328 18.3058L24.139 24.1272L11.4047 24.1402C11.5878 21.0764 12.3942 18.1282 13.7217 15.4429C16.9304 17.1145 20.4806 18.1069 24.1328 18.3058ZM43.2287 39.8041C42.149 38.7704 40.9847 37.8421 39.7522 37.0183C41.3255 33.9043 42.264 30.4681 42.4548 26.8957L48.2387 26.8896C47.9523 31.6621 46.1785 36.1594 43.2287 39.8041ZM26.9359 32.7336L26.9297 26.9109L39.6668 26.8992C39.4836 29.963 38.6759 32.9098 37.3484 35.5944C34.1397 33.9235 30.5894 32.9312 26.9359 32.7336ZM24.1417 26.913L11.4171 26.9274C11.6113 29.9878 12.4279 32.9312 13.7623 35.6061C16.9765 33.9221 20.5027 32.9477 24.1472 32.7467L24.1417 26.913ZM8.62978 26.9302L2.86168 26.9357C3.16396 31.8012 4.98314 36.2585 7.88062 39.824C8.95615 38.7904 10.1212 37.851 11.3579 37.0183C9.78174 33.9215 8.83221 30.495 8.62978 26.9302ZM35.9637 38.01C33.1757 36.5758 30.1006 35.7403 26.9387 35.5476L26.949 45.9248C27.8558 45.4816 28.7434 44.9992 29.5835 44.4383C32.1635 42.7158 34.3125 40.5177 35.9637 38.01ZM24.1507 35.5504L24.1603 45.9489C20.4586 44.1424 17.3711 41.3718 15.1539 38.0203C17.933 36.5875 20.9998 35.75 24.1507 35.5504ZM38.1457 44.4383C38.6808 44.0812 39.1958 43.6972 39.6991 43.2973C39.7721 43.2381 39.8444 43.179 39.9167 43.1205C40.409 42.7172 40.8897 42.2981 41.3489 41.8542C40.4187 40.9602 39.4086 40.1661 38.3523 39.4483C36.4911 42.2995 34.0598 44.799 31.1341 46.7541L31.132 46.7541C30.4758 47.1932 29.7942 47.593 29.1008 47.9681C32.3274 47.4595 35.4059 46.2682 38.1457 44.4383ZM21.1541 47.8215C20.5943 47.7114 20.0434 47.5662 19.4946 47.4141C19.3431 47.3721 19.1868 47.3411 19.0353 47.2957C18.4955 47.1353 17.9653 46.9399 17.4386 46.739C17.2809 46.6784 17.1198 46.6288 16.9648 46.5648C16.4925 46.3735 16.0332 46.1499 15.5739 45.9262C15.3681 45.8243 15.1553 45.7342 14.9515 45.6255C14.5721 45.4273 14.2071 45.2022 13.8388 44.9813C13.5668 44.8162 13.2886 44.6613 13.0249 44.4865C12.7405 44.3007 12.4733 44.0936 12.1972 43.894C11.8667 43.6545 11.5334 43.4198 11.216 43.1631C11.0136 42.998 10.8228 42.8177 10.6252 42.647C10.3353 42.3937 10.0489 42.1384 9.7721 41.8721C10.7024 40.9719 11.7132 40.173 12.7736 39.4517C15.0727 42.9594 18.2139 45.9035 21.9755 47.9467C21.9473 47.9419 21.9184 47.9385 21.8929 47.9336C21.6464 47.8951 21.3951 47.8683 21.1541 47.8215Z" transform="translate(19.05713 0)" id="Fill-10" fill="#004C8B" fill-opacity="0.1" fill-rule="evenodd" stroke="none" />
    <g id="Group-14" transform="translate(41.31396 66.82596)">
      <path d="M6.74448 6.41047L0 6.41047L5.45687 10.3731L3.37327 16.7835L8.83014 12.8216L14.2863 16.7835L12.2007 10.3731L17.6575 6.41047L10.9137 6.41047L8.83014 0L6.74448 6.41047Z" transform="translate(0.6141986 0.3736859)" id="Fill-12" fill="none" stroke="none" />
    </g>
    <g id="Group-17" transform="translate(41.31396 151.473)">
      <path d="M8.82807 3.9619L3.37121 0L5.45687 6.41047L0 10.3737L6.74448 10.3737L8.82807 16.7828L10.913 10.3737L17.6575 10.3737L12.2007 6.41047L14.2842 0L8.82807 3.9619Z" transform="translate(0.5811476 0.3317064)" id="Fill-15" fill="none" stroke="none" />
    </g>
    <g id="Group-20" transform="translate(84.00488 108.8054)">
      <path d="M6.41466 5.45389L0 3.37005L3.96544 8.82463L0 14.2778L6.41466 12.1947L10.378 17.6479L10.378 10.9071L16.7906 8.82463L10.378 6.7408L10.378 0L6.41466 5.45389Z" transform="translate(0.6644638 0.2814687)" id="Fill-18" fill="none" stroke="none" />
    </g>
    <g id="Group-23" transform="translate(0 108.8054)">
      <path d="M6.41466 6.7408L0 8.82325L6.41466 10.9071L6.41466 17.6479L10.378 12.194L16.7934 14.2771L12.8272 8.82325L16.7934 3.37005L10.378 5.4532L6.41466 0L6.41466 6.7408Z" transform="translate(0.01859121 0.2477475)" id="Fill-21" fill="none" stroke="none" />
    </g>
    <g id="Group-26" transform="translate(70.2334 79.90152)">
      <path d="M6.01047 6.6589L0 9.71859L6.66461 10.7729L7.71811 17.4304L10.7808 11.4246L17.442 12.4789L12.6723 7.7139L15.733 1.70671L9.72527 4.76708L4.95559 0L6.01047 6.6589Z" transform="translate(0.6506925 0.4514511)" id="Fill-24" fill="none" stroke="none" />
    </g>
    <g id="Group-29" transform="translate(13.08252 137.7093)">
      <path d="M6.66116 6.00581L0 4.9522L4.76968 9.7179L1.70901 15.7244L7.71742 12.664L12.4871 17.4311L11.4308 10.7736L17.4413 7.71183L10.7781 6.6589L9.72458 0L6.66116 6.00581Z" transform="translate(0.07161061 0.2945443)" id="Fill-27" fill="none" stroke="none" />
    </g>
    <g id="Group-32" transform="translate(70.2334 137.7093)">
      <path d="M6.66116 6.65753L0 7.71114L6.01047 10.7715L4.9549 17.4297L9.72527 12.662L15.733 15.723L12.6716 9.71652L17.4399 4.95013L10.7781 6.00444L7.71742 0L6.66116 6.65753Z" transform="translate(0.6272814 0.3200072)" id="Fill-30" fill="none" stroke="none" />
    </g>
    <g id="Group-35" transform="translate(13.08252 79.90152)">
      <path d="M7.71673 4.76501L1.70626 1.70602L4.76693 7.71183L0 12.4789L6.66116 11.4232L9.72183 17.4304L10.7774 10.7722L17.4392 9.71721L11.4288 6.65822L12.4843 0L7.71673 4.76501Z" transform="translate(0.09777602 0.4280527)" id="Fill-33" fill="none" stroke="none" />
    </g>
    <g id="Group-57" transform="translate(110.8589 62.00865)">
      <path d="M19.9449 10.575L19.1572 10.575L19.1572 10.3562C19.1558 10.0693 19.1572 9.78262 19.1586 9.49635C19.1612 8.94071 19.1639 8.38647 19.1462 7.83463C19.1324 7.30817 19.0939 6.7824 18.9954 6.26763C18.2166 2.16466 14.1231 -0.623191 10 0.120051C6.2012 0.806175 3.51787 4.01795 3.52269 7.86904C3.52269 8.71276 3.52476 9.55166 3.52476 10.3892L3.52476 10.6005C3.43559 10.6005 3.34872 10.6007 3.26357 10.6009C3.0982 10.6014 2.93929 10.6018 2.78249 10.6005C2.36453 10.5922 1.95827 10.6583 1.5837 10.8441C0.537768 11.3582 0 12.1977 0 13.3615C0.00344282 17.9159 0.00963989 22.471 0.0234112 27.0247C0.0234112 27.2429 0.0475109 27.4755 0.0998417 27.6875C0.394547 28.9324 1.47766 29.7589 2.80108 29.7548C6.39193 29.752 9.99174 29.7465 13.5812 29.741C15.713 29.7362 17.8427 29.7348 19.9732 29.7279C21.5334 29.7224 22.7185 28.5422 22.7185 26.991C22.7116 22.4373 22.7047 17.8739 22.6985 13.314C22.6916 11.747 21.5121 10.5771 19.9449 10.575ZM17.6435 10.4918C17.6409 10.5153 17.6382 10.5408 17.6376 10.5722C13.4318 10.575 9.24534 10.5839 5.05406 10.5901C5.04717 10.5495 5.03615 10.5144 5.03478 10.478C5.03518 10.1845 5.03274 9.89044 5.03031 9.59616L5.03031 9.59603C5.02434 8.87456 5.01836 8.15174 5.05406 7.43273C5.19315 4.56712 7.35592 2.13919 10.1859 1.62649C13.4793 1.03259 16.6329 3.04347 17.4454 6.27864C17.5625 6.75143 17.6169 7.24348 17.6341 7.72934C17.6571 8.33812 17.6536 8.94785 17.6501 9.55648L17.6501 9.55696C17.6484 9.84251 17.6468 10.1278 17.6479 10.4126C17.649 10.4405 17.6464 10.4649 17.6435 10.4918ZM11.3338 12.1C8.49343 12.1076 5.64622 12.109 2.80108 12.1145C1.99201 12.1145 1.50795 12.6052 1.50795 13.4124C1.51553 17.9186 1.52241 22.427 1.52861 26.9318C1.52999 27.7625 2.01749 28.2428 2.85341 28.2428C8.49963 28.2318 14.1452 28.2236 19.7941 28.2132C19.8671 28.2132 19.9394 28.2132 20.011 28.2105C20.6955 28.1995 21.2084 27.6902 21.2084 27.0103C21.2002 22.4318 21.1933 17.854 21.1823 13.2768C21.1823 12.8109 20.9709 12.4386 20.5488 12.2342C20.3484 12.1365 20.0985 12.0931 19.8685 12.0931C18.0047 12.0904 16.14 12.0933 14.2758 12.0963L14.2756 12.0963C13.2948 12.0978 12.3141 12.0993 11.3338 12.1Z" transform="translate(0.6611587 0.6293161)" id="Fill-39" fill="#EFEFEF" fill-rule="evenodd" stroke="none" />
      <path d="M19.9449 10.575L19.1572 10.575L19.1572 10.3562C19.1558 10.0693 19.1572 9.78262 19.1586 9.49635C19.1612 8.94071 19.1639 8.38647 19.1462 7.83463C19.1324 7.30817 19.0939 6.7824 18.9954 6.26763C18.2166 2.16466 14.1231 -0.623191 10 0.120051C6.2012 0.806175 3.51787 4.01795 3.52269 7.86904C3.52269 8.71276 3.52476 9.55166 3.52476 10.3892L3.52476 10.6005C3.43559 10.6005 3.34872 10.6007 3.26357 10.6009C3.0982 10.6014 2.93929 10.6018 2.78249 10.6005C2.36453 10.5922 1.95827 10.6583 1.5837 10.8441C0.537768 11.3582 0 12.1977 0 13.3615C0.00344282 17.9159 0.00963989 22.471 0.0234112 27.0247C0.0234112 27.2429 0.0475109 27.4755 0.0998417 27.6875C0.394547 28.9324 1.47766 29.7589 2.80108 29.7548C6.39193 29.752 9.99174 29.7465 13.5812 29.741C15.713 29.7362 17.8427 29.7348 19.9732 29.7279C21.5334 29.7224 22.7185 28.5422 22.7185 26.991C22.7116 22.4373 22.7047 17.8739 22.6985 13.314C22.6916 11.747 21.5121 10.5771 19.9449 10.575ZM17.6435 10.4918C17.6409 10.5153 17.6382 10.5408 17.6376 10.5722C13.4318 10.575 9.24534 10.5839 5.05406 10.5901C5.04717 10.5495 5.03615 10.5144 5.03478 10.478C5.03518 10.1845 5.03274 9.89044 5.03031 9.59616L5.03031 9.59603C5.02434 8.87456 5.01836 8.15174 5.05406 7.43273C5.19315 4.56712 7.35592 2.13919 10.1859 1.62649C13.4793 1.03259 16.6329 3.04347 17.4454 6.27864C17.5625 6.75143 17.6169 7.24348 17.6341 7.72934C17.6571 8.33812 17.6536 8.94785 17.6501 9.55648L17.6501 9.55696C17.6484 9.84251 17.6468 10.1278 17.6479 10.4126C17.649 10.4405 17.6464 10.4649 17.6435 10.4918ZM11.3338 12.1C8.49343 12.1076 5.64622 12.109 2.80108 12.1145C1.99201 12.1145 1.50795 12.6052 1.50795 13.4124C1.51553 17.9186 1.52241 22.427 1.52861 26.9318C1.52999 27.7625 2.01749 28.2428 2.85341 28.2428C8.49963 28.2318 14.1452 28.2236 19.7941 28.2132C19.8671 28.2132 19.9394 28.2132 20.011 28.2105C20.6955 28.1995 21.2084 27.6902 21.2084 27.0103C21.2002 22.4318 21.1933 17.854 21.1823 13.2768C21.1823 12.8109 20.9709 12.4386 20.5488 12.2342C20.3484 12.1365 20.0985 12.0931 19.8685 12.0931C18.0047 12.0904 16.14 12.0933 14.2758 12.0963L14.2756 12.0963C13.2948 12.0978 12.3141 12.0993 11.3338 12.1Z" transform="translate(0.6611587 0.6293161)" id="Stroke-41" fill="none" fill-rule="evenodd" stroke="#EFEFEF" stroke-width="0.6885635" />
      <path d="M1.52751 8.19753C1.52737 8.30021 1.52723 8.40287 1.52723 8.50553C1.52882 8.70778 1.52865 8.91077 1.52848 9.1145C1.52828 9.35233 1.52808 9.59115 1.53068 9.83098C1.55133 11.3009 2.85891 12.3539 4.28631 12.0511C5.33499 11.8267 6.06693 10.9087 6.07037 9.80758C6.07283 9.13269 6.07002 8.4592 6.06721 7.78561C6.06609 7.51614 6.06496 7.24666 6.06418 6.97706C6.06418 6.86145 6.09447 6.78231 6.1895 6.70041C7.24851 5.79407 7.70847 4.64755 7.53495 3.26498C7.27398 1.19078 5.26269 -0.309467 3.21146 0.054584C1.62776 0.338805 0.559801 1.26442 0.146663 2.81284C-0.264409 4.35232 0.198994 5.67088 1.40673 6.72312C1.46595 6.78093 1.5169 6.88003 1.52035 6.96261C1.52861 7.37554 1.52806 7.78672 1.52751 8.19753ZM3.03932 9.81997L3.03932 8.09812C3.03932 7.92021 3.03794 7.74238 3.03656 7.56467C3.03381 7.20965 3.03106 6.85513 3.03932 6.50152C3.0462 6.14367 2.90367 5.89661 2.60001 5.70942C1.68698 5.15337 1.29932 4.05089 1.64704 3.04132C1.98719 2.04964 2.9801 1.42339 4.03016 1.52662C4.97694 1.62778 5.78393 2.3373 5.99876 3.2581C6.22393 4.20573 5.83213 5.18433 5.00792 5.69635C4.6843 5.89661 4.54521 6.15606 4.5514 6.53249C4.56173 7.62258 4.56173 8.70854 4.55829 9.7945C4.55485 10.332 4.09695 10.7002 3.59912 10.5618C3.26792 10.4703 3.0462 10.1799 3.03932 9.81997Z" transform="translate(8.223102 14.73739)" id="Fill-43" fill="#EFEFEF" fill-rule="evenodd" stroke="none" />
      <path d="M1.52751 8.19753C1.52737 8.30021 1.52723 8.40287 1.52723 8.50553C1.52882 8.70778 1.52865 8.91077 1.52848 9.1145C1.52828 9.35233 1.52808 9.59115 1.53068 9.83098C1.55133 11.3009 2.85891 12.3539 4.28631 12.0511C5.33499 11.8267 6.06693 10.9087 6.07037 9.80758C6.07283 9.13269 6.07002 8.4592 6.06721 7.78561C6.06609 7.51614 6.06496 7.24666 6.06418 6.97706C6.06418 6.86145 6.09447 6.78231 6.1895 6.70041C7.24851 5.79407 7.70847 4.64755 7.53495 3.26498C7.27398 1.19078 5.26269 -0.309467 3.21146 0.054584C1.62776 0.338805 0.559801 1.26442 0.146663 2.81284C-0.264409 4.35232 0.198994 5.67088 1.40673 6.72312C1.46595 6.78093 1.5169 6.88003 1.52035 6.96261C1.52861 7.37554 1.52806 7.78672 1.52751 8.19753ZM3.03932 9.81997L3.03932 8.09812C3.03932 7.92021 3.03794 7.74238 3.03656 7.56467C3.03381 7.20965 3.03106 6.85513 3.03932 6.50152C3.0462 6.14367 2.90367 5.89661 2.60001 5.70942C1.68698 5.15337 1.29932 4.05089 1.64704 3.04132C1.98719 2.04964 2.9801 1.42339 4.03016 1.52662C4.97694 1.62778 5.78393 2.3373 5.99876 3.2581C6.22393 4.20573 5.83213 5.18433 5.00792 5.69635C4.6843 5.89661 4.54521 6.15606 4.5514 6.53249C4.56173 7.62258 4.56173 8.70854 4.55829 9.7945C4.55485 10.332 4.09695 10.7002 3.59912 10.5618C3.26792 10.4703 3.0462 10.1799 3.03932 9.81997Z" transform="translate(8.223102 14.73739)" id="Stroke-45" fill="none" fill-rule="evenodd" stroke="#EFEFEF" stroke-width="0.6885635" />
      <path d="M24.8998 21.1207C24.8985 20.5137 24.8985 19.906 24.8985 19.3004C24.7544 18.9814 24.4899 18.9978 24.2345 19.0135C24.1786 19.017 24.1231 19.0204 24.0694 19.0203C17.6529 19.016 11.233 19.0161 4.81382 19.0162C4.01115 19.0162 3.20848 19.0162 2.40584 19.0162C2.37386 19.0162 2.34182 19.0159 2.30975 19.0157C2.19334 19.0147 2.07655 19.0138 1.96103 19.0251C1.71177 19.0485 1.52035 19.1765 1.52723 19.4387C1.53274 19.7023 1.72829 19.8179 1.98237 19.8282C2.10707 19.8335 2.23325 19.8333 2.35882 19.8331C2.38163 19.8331 2.40443 19.8331 2.42719 19.8331L11.3943 19.8331C12.3325 19.8331 13.2706 19.8333 14.2087 19.8335C17.3358 19.8342 20.4629 19.835 23.5895 19.8275C23.9703 19.8262 24.2126 19.8778 24.1335 20.3327C24.0752 20.6636 23.861 20.6274 23.668 20.5948C23.6125 20.5854 23.5588 20.5763 23.511 20.5763C17.3115 20.5845 11.1104 20.5842 4.90876 20.584C3.81396 20.5839 2.71915 20.5839 1.62432 20.5839C0.749846 20.5839 0.552228 20.3168 0.804242 19.4601C0.840047 19.3382 0.905461 19.2226 0.9633 19.1077C1.2704 18.4931 1.60917 17.8917 1.87289 17.2606C2.05192 16.8305 2.30669 16.7149 2.75839 16.7149C7.79811 16.7271 12.8378 16.7263 17.8772 16.7256C19.0937 16.7254 20.3101 16.7252 21.5266 16.7252L21.5309 16.7252C22.6675 16.7252 22.6714 16.7252 23.0641 17.8167C23.1591 18.0816 23.2714 18.3349 23.6005 18.2351C23.9717 18.1222 23.9207 17.827 23.8016 17.5517C23.4125 16.6419 23.385 15.6902 23.3898 14.7171C23.4032 11.7426 23.4008 8.76842 23.3985 5.79439C23.3977 4.77895 23.3969 3.76353 23.3967 2.74811C23.3967 0.956753 22.443 0.00154842 20.6493 0.00154842C15.1918 -0.000516141 9.73353 -0.000516141 4.27598 0.00154842C2.45197 0.00154842 1.50245 0.954688 1.50245 2.78114L1.50245 2.78227C1.50107 7.10646 1.49969 11.4286 1.50589 15.7507C1.50727 16.0948 1.44047 16.4004 1.28142 16.7094C0.841425 17.5668 0.427598 18.4353 0.00137713 19.3004C0.00137713 19.9074 0.000688564 20.5137 0 21.1207C0.119721 21.4102 0.352914 21.3947 0.577647 21.3797C0.62693 21.3765 0.675807 21.3732 0.722992 21.3732C3.05809 21.3785 5.39418 21.3783 7.73 21.3781C8.1548 21.3781 8.57958 21.378 9.00434 21.378C9.77985 21.378 10.5553 21.3781 11.3308 21.3781C15.5947 21.3783 19.858 21.3785 24.1204 21.3732C24.1741 21.3732 24.2301 21.3778 24.2868 21.3824C24.5217 21.4016 24.7673 21.4217 24.8998 21.1207ZM14.7834 15.9121C14.006 15.9126 13.2287 15.9131 12.4513 15.9131C11.6736 15.9131 10.8959 15.9126 10.1182 15.9121C7.72049 15.9106 5.32295 15.9091 2.92502 15.9221C2.4864 15.9248 2.31702 15.8429 2.31977 15.353C2.33305 12.427 2.33261 9.50109 2.33217 6.57516C2.33198 5.25153 2.33178 3.9279 2.33285 2.60427C2.33423 1.39375 2.93672 0.796405 4.1541 0.795717C9.68671 0.793652 15.22 0.793652 20.7519 0.795717C21.9728 0.796405 22.5656 1.38549 22.5656 2.60427C22.5669 3.9772 22.5668 5.35013 22.5666 6.72306C22.5662 9.59969 22.5659 12.4763 22.5794 15.353C22.5814 15.8423 22.4134 15.9248 21.9741 15.9221C19.5772 15.9091 17.1803 15.9106 14.7834 15.9121Z" transform="translate(45.95487 94.4257)" id="Fill-47" fill="#EFEFEF" fill-rule="evenodd" stroke="none" />
      <path d="M24.8998 21.1207C24.8985 20.5137 24.8985 19.906 24.8985 19.3004C24.7544 18.9814 24.4899 18.9978 24.2345 19.0135C24.1786 19.017 24.1231 19.0204 24.0694 19.0203C17.6529 19.016 11.233 19.0161 4.81382 19.0162C4.01115 19.0162 3.20848 19.0162 2.40584 19.0162C2.37386 19.0162 2.34182 19.0159 2.30975 19.0157C2.19334 19.0147 2.07655 19.0138 1.96103 19.0251C1.71177 19.0485 1.52035 19.1765 1.52723 19.4387C1.53274 19.7023 1.72829 19.8179 1.98237 19.8282C2.10707 19.8335 2.23325 19.8333 2.35882 19.8331C2.38163 19.8331 2.40443 19.8331 2.42719 19.8331L11.3943 19.8331C12.3325 19.8331 13.2706 19.8333 14.2087 19.8335C17.3358 19.8342 20.4629 19.835 23.5895 19.8275C23.9703 19.8262 24.2126 19.8778 24.1335 20.3327C24.0752 20.6636 23.861 20.6274 23.668 20.5948C23.6125 20.5854 23.5588 20.5763 23.511 20.5763C17.3115 20.5845 11.1104 20.5842 4.90876 20.584C3.81396 20.5839 2.71915 20.5839 1.62432 20.5839C0.749846 20.5839 0.552228 20.3168 0.804242 19.4601C0.840047 19.3382 0.905461 19.2226 0.9633 19.1077C1.2704 18.4931 1.60917 17.8917 1.87289 17.2606C2.05192 16.8305 2.30669 16.7149 2.75839 16.7149C7.79811 16.7271 12.8378 16.7263 17.8772 16.7256C19.0937 16.7254 20.3101 16.7252 21.5266 16.7252L21.5309 16.7252C22.6675 16.7252 22.6714 16.7252 23.0641 17.8167C23.1591 18.0816 23.2714 18.3349 23.6005 18.2351C23.9717 18.1222 23.9207 17.827 23.8016 17.5517C23.4125 16.6419 23.385 15.6902 23.3898 14.7171C23.4032 11.7426 23.4008 8.76842 23.3985 5.79439C23.3977 4.77895 23.3969 3.76353 23.3967 2.74811C23.3967 0.956753 22.443 0.00154842 20.6493 0.00154842C15.1918 -0.000516141 9.73353 -0.000516141 4.27598 0.00154842C2.45197 0.00154842 1.50245 0.954688 1.50245 2.78114L1.50245 2.78227C1.50107 7.10646 1.49969 11.4286 1.50589 15.7507C1.50727 16.0948 1.44047 16.4004 1.28142 16.7094C0.841425 17.5668 0.427598 18.4353 0.00137713 19.3004C0.00137713 19.9074 0.000688564 20.5137 0 21.1207C0.119721 21.4102 0.352914 21.3947 0.577647 21.3797C0.62693 21.3765 0.675807 21.3732 0.722992 21.3732C3.05809 21.3785 5.39418 21.3783 7.73 21.3781C8.1548 21.3781 8.57958 21.378 9.00434 21.378C9.77985 21.378 10.5553 21.3781 11.3308 21.3781C15.5947 21.3783 19.858 21.3785 24.1204 21.3732C24.1741 21.3732 24.2301 21.3778 24.2868 21.3824C24.5217 21.4016 24.7673 21.4217 24.8998 21.1207ZM14.7834 15.9121C14.006 15.9126 13.2287 15.9131 12.4513 15.9131C11.6736 15.9131 10.8959 15.9126 10.1182 15.9121C7.72049 15.9106 5.32295 15.9091 2.92502 15.9221C2.4864 15.9248 2.31702 15.8429 2.31977 15.353C2.33305 12.427 2.33261 9.50109 2.33217 6.57516C2.33198 5.25153 2.33178 3.9279 2.33285 2.60427C2.33423 1.39375 2.93672 0.796405 4.1541 0.795717C9.68671 0.793652 15.22 0.793652 20.7519 0.795717C21.9728 0.796405 22.5656 1.38549 22.5656 2.60427C22.5669 3.9772 22.5668 5.35013 22.5666 6.72306C22.5662 9.59969 22.5659 12.4763 22.5794 15.353C22.5814 15.8423 22.4134 15.9248 21.9741 15.9221C19.5772 15.9091 17.1803 15.9106 14.7834 15.9121Z" transform="translate(45.95487 94.4257)" id="Stroke-49" fill="none" fill-rule="evenodd" stroke="#EFEFEF" stroke-width="0.6885635" />
      <path d="M9.38583 0.00760288C12.2441 0.00760288 15.1043 0.00691469 17.9612 0.00760288C18.7083 0.00760288 18.7592 0.0585288 18.7592 0.791449C18.7613 4.03832 18.7613 7.28519 18.7592 10.5321C18.7592 10.6979 18.7613 10.8693 18.7241 11.0289C18.6814 11.2079 18.5396 11.3063 18.3509 11.3014C18.1643 11.2966 18.0252 11.1982 17.9942 11.0131C17.9626 10.8321 17.9612 10.6442 17.9612 10.4591C17.9584 7.41663 17.9522 4.37278 17.9674 1.3303C17.9695 0.90844 17.8744 0.754975 17.4172 0.757039C12.0719 0.773556 6.7259 0.773556 1.37921 0.757039C0.901346 0.754975 0.796684 0.907752 0.79875 1.35576C0.816652 4.73339 0.819407 8.11032 0.796684 11.4873C0.793241 11.9869 0.939905 12.1025 1.42259 12.1004C6.82437 12.0839 12.2275 12.0901 17.6286 12.0901C17.7773 12.0901 17.9247 12.0908 18.0741 12.0901C18.3778 12.088 18.7393 12.0722 18.7365 12.4844C18.7345 12.8974 18.3723 12.8753 18.0686 12.8753C12.2778 12.8753 6.4856 12.8719 0.692711 12.8822C0.194191 12.8822 -0.00204957 12.7109 1.61235e-05 12.2009C0.0124103 8.36014 0.0124103 4.51936 1.61235e-05 0.677898C-0.00204957 0.167262 0.198322 -0.00271993 0.697531 3.28169e-05C3.59363 0.0144848 6.48973 0.00760288 9.38583 0.00760288" transform="translate(49.02102 96.30976)" id="Fill-51" fill="#EFEFEF" stroke="none" />
      <path d="M9.38583 0.00760288C12.2441 0.00760288 15.1043 0.00691469 17.9612 0.00760288C18.7083 0.00760288 18.7592 0.0585288 18.7592 0.791449C18.7613 4.03832 18.7613 7.28519 18.7592 10.5321C18.7592 10.6979 18.7613 10.8693 18.7241 11.0289C18.6814 11.2079 18.5396 11.3063 18.3509 11.3014C18.1643 11.2966 18.0252 11.1982 17.9942 11.0131C17.9626 10.8321 17.9612 10.6442 17.9612 10.4591C17.9584 7.41663 17.9522 4.37278 17.9674 1.3303C17.9695 0.90844 17.8744 0.754975 17.4172 0.757039C12.0719 0.773556 6.7259 0.773556 1.37921 0.757039C0.901346 0.754975 0.796684 0.907752 0.79875 1.35576C0.816652 4.73339 0.819407 8.11032 0.796684 11.4873C0.793241 11.9869 0.939905 12.1025 1.42259 12.1004C6.82437 12.0839 12.2275 12.0901 17.6286 12.0901C17.7773 12.0901 17.9247 12.0908 18.0741 12.0901C18.3778 12.088 18.7393 12.0722 18.7365 12.4844C18.7345 12.8974 18.3723 12.8753 18.0686 12.8753C12.2778 12.8753 6.4856 12.8719 0.692711 12.8822C0.194191 12.8822 -0.00204957 12.7109 1.61235e-05 12.2009C0.0124103 8.36014 0.0124103 4.51936 1.61235e-05 0.677898C-0.00204957 0.167262 0.198322 -0.00271993 0.697531 3.28169e-05C3.59363 0.0144848 6.48973 0.00760288 9.38583 0.00760288Z" transform="translate(49.02102 96.30976)" id="Stroke-53" fill="none" stroke="#EFEFEF" stroke-width="0.6885635" />
      <path d="M21.4611 0.0410651C22.9058 0.134659 23.9785 1.57504 23.6246 3.18471C23.1977 5.12264 22.9133 7.09155 22.567 9.04669C22.4141 9.90899 22.273 10.7727 22.1029 11.6308C21.8708 12.8028 20.8607 13.6603 19.6922 13.661C13.2184 13.6672 6.74379 13.6637 0.270605 13.6624C0.180404 13.6624 0.0895132 13.6424 0 13.6314C0.107416 12.9907 0.197618 12.3472 0.327068 11.7114C0.545342 10.6412 0.731254 9.56489 0.927495 8.4927C1.14026 7.33104 1.36818 6.17075 1.5534 5.0029C1.68147 4.19565 1.82676 3.39047 1.97893 2.58667C2.09943 1.94666 2.21373 1.30251 2.69986 0.802201C3.32163 0.164251 4.1121 0.00459115 4.95077 0.00321478C10.1639 -0.00160253 15.3763 -0.00160253 20.5887 0.00734391C20.9048 0.00734391 21.2029 0.0245486 21.4611 0.0410651" transform="translate(17.20665 50.41272)" id="Fill-55" fill="#FFE800" stroke="none" />
    </g>
    <g id="Group-60" transform="translate(125.3184 106.0527)">
      <path d="M8.50568 0C7.69455 0.00344094 6.88273 0.00275275 6.07161 0.00275275L6.07161 0.00275275C4.86524 0.00137638 3.65819 0 2.45183 0.0116992L2.45183 0.0116992C1.54843 0.0206456 0.860558 0.465903 0.37581 1.2236L0.37581 1.2236C0.0597589 1.7184 0.00191955 2.27721 0.00191955 2.84428L0.00191955 2.84428C-0.000834709 7.57144 -0.000834709 12.3 0.00329667 17.0278L0.00329667 17.0278C0.00329667 17.3141 0.0335935 17.6025 0.0797272 17.8853L0.0797272 17.8853C0.22708 18.7958 1.06162 19.6154 1.96433 19.7537L1.96433 19.7537C2.07312 19.7166 2.18191 19.6815 2.25146 19.8184L2.25146 19.8184C2.34992 19.8632 2.44976 19.8721 2.55236 19.8308L2.55236 19.8308C2.65977 19.1908 2.74998 18.546 2.87943 17.9108L2.87943 17.9108C3.0977 16.8406 3.28361 15.7643 3.47985 14.6921L3.47985 14.6921C3.69262 13.5298 3.92053 12.3709 4.10576 11.2023L4.10576 11.2023C4.23383 10.3958 4.37912 9.59058 4.53129 8.78609L4.53129 8.78609C4.65179 8.14608 4.76678 7.50193 5.25222 7.00162L5.25222 7.00162C5.87399 6.36298 6.66446 6.20401 7.50313 6.20263L7.50313 6.20263C12.7162 6.19713 17.9294 6.19713 23.1418 6.20676L23.1418 6.20676C23.4578 6.20676 23.621 6.19919 23.6203 5.82757L23.6203 5.82757C23.621 5.32726 23.6203 5.10085 23.6203 4.79254L23.6203 4.79254C23.6169 4.2296 23.3848 3.75544 23.0254 3.34046L23.0254 3.34046C22.4828 2.71077 21.7757 2.48711 20.9597 2.48986L20.9597 2.48986C19.3932 2.49468 17.8275 2.49468 16.2623 2.49468L16.2623 2.49468C14.7489 2.49468 13.2347 2.49468 11.7213 2.49812L11.7213 2.49812C11.3818 2.49881 11.1277 2.40246 10.8902 2.15403L10.8902 2.15403C10.2643 1.50231 9.61358 0.873998 8.97597 0.233296L8.97597 0.233296C8.84376 0.100475 8.71776 0 8.50774 0L8.50774 0C8.50706 0 8.50637 0 8.50568 0" transform="translate(0.1943211 0.1692941)" id="Fill-58" fill="none" stroke="none" />
    </g>
    <g id="Group-83" transform="translate(11.6001 30.65511)">
      <path d="M4.86952 2.43274C4.86952 3.77609 3.77884 4.86617 2.43476 4.86617C1.09068 4.86617 0 3.77609 0 2.43274C0 1.08871 1.09068 0 2.43476 0C3.77884 0 4.86952 1.08871 4.86952 2.43274" transform="translate(212.7166 150.1695)" id="Fill-61" fill="#EFEFEF" stroke="none" />
      <path d="M4.86952 2.43274C4.86952 3.77609 3.77884 4.86617 2.43476 4.86617C1.09068 4.86617 0 3.77609 0 2.43274C0 1.08871 1.09068 0 2.43476 0C3.77884 0 4.86952 1.08871 4.86952 2.43274" transform="translate(92.33492 14.51656)" id="Fill-63" fill="#EFEFEF" stroke="none" />
      <path d="M4.86952 2.43274C4.86952 3.7754 3.77884 4.86549 2.43476 4.86549C1.09068 4.86549 0 3.7754 0 2.43274C0 1.08871 1.09068 0 2.43476 0C3.77884 0 4.86952 1.08871 4.86952 2.43274" transform="translate(34.28647 147.6714)" id="Fill-65" fill="#EFEFEF" stroke="none" />
      <path d="M0 0L0 11.011" transform="translate(192.0555 109.3143)" id="Stroke-67" fill="none" stroke="#EFEFEF" stroke-width="2.06569052" stroke-linecap="round" stroke-linejoin="round" />
      <path d="M11.017 0L0 0" transform="translate(186.5469 114.8198)" id="Stroke-69" fill="none" stroke="#EFEFEF" stroke-width="2.06569052" stroke-linecap="round" stroke-linejoin="round" />
      <path d="M0 0L0 11.011" transform="translate(5.675967 111.9447)" id="Stroke-71" fill="none" stroke="#EFEFEF" stroke-width="2.06569052" stroke-linecap="round" stroke-linejoin="round" />
      <path d="M11.017 0L0 0" transform="translate(0.1674587 117.4502)" id="Stroke-73" fill="none" stroke="#EFEFEF" stroke-width="2.06569052" stroke-linecap="round" stroke-linejoin="round" />
      <path d="M0 0L0 11.011" transform="translate(149.6435 0.306794)" id="Stroke-75" fill="none" stroke="#EFEFEF" stroke-width="2.06569052" stroke-linecap="round" stroke-linejoin="round" />
      <path d="M11.017 0L0 0" transform="translate(144.135 5.812295)" id="Stroke-77" fill="none" stroke="#EFEFEF" stroke-width="2.06569052" stroke-linecap="round" stroke-linejoin="round" />
      <path d="M0 0L0 11.011" transform="translate(231.0386 103.8088)" id="Stroke-79" fill="none" stroke="#EFEFEF" stroke-width="2.06569052" stroke-linecap="round" stroke-linejoin="round" />
      <path d="M11.017 0L0 0" transform="translate(225.5301 109.3143)" id="Stroke-81" fill="none" stroke="#EFEFEF" stroke-width="2.06569052" stroke-linecap="round" stroke-linejoin="round" />
    </g>
    <g id="Group-86" transform="translate(167.3208 53.06221)">
      <path d="M38.6234 0.165165C26.597 2.51464 14.5726 4.86686 2.51722 7.08076L2.51722 7.08076C0.548615 7.44275 0.02393 8.20044 0.0466526 10.126L0.0466526 10.126C0.151314 18.6024 -0.0456149 49.5034 0.0101588 56.6323L0.0101588 56.6323C0.0803923 65.907 3.03571 73.3615 8.98283 79.9536L8.98283 79.9536C17.2807 89.1533 27.6587 95.3711 38.8534 100.374L38.8534 100.374C39.7093 100.758 40.4495 100.95 41.3818 100.524L41.3818 100.524C54.3055 94.6464 66.3223 87.5113 74.866 75.7591L74.866 75.7591C78.6916 70.5021 80.623 64.6717 80.5218 57.975L80.5218 57.975C80.2746 42.1432 80.4048 26.3018 80.4888 10.4632L80.4888 10.4632C80.5012 8.30092 79.9896 7.43174 77.687 7.01814L77.687 7.01814C65.737 4.86893 53.8262 2.50019 41.9127 0.165165L41.9127 0.165165C41.3501 0.055055 40.8089 0 40.2677 0L40.2677 0C39.7265 0 39.1853 0.055055 38.6234 0.165165" transform="translate(0.3554685 0.3034907)" id="Fill-84" fill="url(#gradient_1)" stroke="none" />
    </g>
    <path d="M60.5138 5.46696C51.2051 3.7926 41.9281 1.94757 32.6463 0.128003C31.7718 -0.0426676 30.9614 -0.0426676 30.0855 0.128003C20.7176 1.95927 11.3511 3.79123 1.96045 5.51514C0.427707 5.79798 0.0193888 6.38707 0.0366029 7.88801C0.117853 14.4905 -0.0350077 38.5605 0.0076832 44.1135C0.0620797 51.3381 2.36464 57.1443 6.99729 62.2789C13.4601 69.4443 21.5446 74.2885 30.2645 78.1857C30.9311 78.4844 31.5067 78.6337 32.2338 78.3027C42.3013 73.7242 51.6617 68.1664 58.3159 59.0121C61.2967 54.9174 62.8012 50.3753 62.7214 45.1602C62.5299 32.8265 62.6305 20.488 62.6952 8.15021C62.7048 6.46621 62.3082 5.78903 60.5138 5.46696Z" transform="translate(176.5767 64.50319)" id="Fill-87" fill="#007DD5" stroke="none" />
    <g id="Group-91" transform="translate(176.2725 66.8125)">
      <path d="M1.96045 5.04441C0.428395 5.30317 0.0193888 5.84271 0.0366029 7.21496C0.117853 13.2559 -0.0350077 39.417 0.0076832 44.4972C0.0620797 51.1059 2.36464 56.418 6.99798 61.1142C13.4601 67.6699 21.5446 72.1011 30.2645 75.6659C30.9318 75.9398 31.5067 76.0768 32.2331 75.774C42.3013 71.585 51.661 66.5006 58.3159 58.1261C61.2967 54.381 62.8019 50.2257 62.7214 45.4545C62.5299 34.1716 62.6305 18.7421 62.6952 7.45514C62.7048 5.91428 62.3082 5.2956 60.5138 4.99968C51.2058 3.46915 41.9281 1.78034 32.647 0.116304C32.209 0.0385385 31.7876 0 31.3662 0C30.9448 0 30.5234 0.0385385 30.0855 0.116304C20.7183 1.79204 11.3511 3.46778 1.96045 5.04441Z" transform="translate(0.3042361 0.2360484)" id="Fill-89" fill="url(#gradient_2)" stroke="none" />
    </g>
    <g id="Group-98" transform="translate(23.41113 88.15979)">
      <path d="M0 15.3314L11.6629 26.5193L31.9204 0" transform="translate(168.567 0.1981292)" id="Stroke-92" fill="none" stroke="#FFFFFF" stroke-width="4.81994438" />
      <path d="M49.5322 107.397C48.0208 117.364 41.0574 115.411 41.3886 114.973C44.9712 110.241 41.3886 106.649 41.3886 106.649C41.3886 106.649 10.9554 84.6333 3.7021 79.8002C-3.55123 74.967 2.09018 69.0603 2.09018 69.0603C2.09018 69.0603 40.7744 43.8224 47.7578 38.9893C54.7419 34.1561 64.1456 30.6663 64.1456 30.6663L62.8022 16.4367C62.8022 16.4367 60.9217 5.69683 65.4883 1.40116C70.0548 -2.89451 78.6522 3.27991 81.8754 11.8719C85.0993 20.464 78.6522 21.5382 78.6522 21.5382L78.6522 30.6663C78.6522 30.6663 102.023 31.7399 108.202 44.3592C114.381 56.9785 134.539 89.4658 134.539 89.4658C134.539 89.4658 161.94 95.91 168.387 95.6416C168.387 95.6416 175.912 93.2797 177.886 93.5619C179.859 93.8433 183.244 94.1255 181.975 95.1117C180.705 96.0985 178.168 95.2534 178.168 95.2534C178.168 95.2534 186.911 96.3807 188.603 96.5211C188.603 96.5211 189.308 100.186 182.962 100.609C176.616 101.032 169.73 100.474 169.73 100.474C167.849 100.474 132.926 102.085 132.926 102.085L107.396 73.8935L108.336 106.381L46.4151 107.455L41.3886 63.6904L16.5968 77.3839L45.7644 101.795" transform="translate(0.4831241 9.313784)" id="Fill-94" fill="#FFBA72" stroke="none" />
      <path d="M168.387 63.7289C161.94 63.9973 134.539 57.5531 134.539 57.5531C134.539 57.5531 114.381 25.0659 108.202 12.4466C104.542 4.97284 94.8521 1.54911 87.5588 0C86.7601 4.05687 83.7056 10.0303 72.6321 10.0303C60.1264 10.0303 56.6747 5.01207 55.7279 2.46165C53.1272 3.75682 50.2841 5.32795 47.7585 7.07663C40.7744 11.9098 2.09018 37.1477 2.09018 37.1477C2.09018 37.1477 -3.55123 43.0544 3.7021 47.8875C10.9554 52.7207 41.3892 74.7365 41.3892 74.7365C41.3892 74.7365 41.4402 74.7888 41.5187 74.881C42.7134 72.5969 43.9982 70.1924 44.7191 69.0087L16.5968 45.4713L41.3892 31.7778L45.6122 68.5545C46.6891 69.9116 49.5322 75.4846 49.5322 75.4846L49.5487 75.4887L108.336 74.4681L107.396 41.9808L132.926 70.1724C132.926 70.1724 167.849 68.5614 169.73 68.5614C170.073 68.5614 170.326 68.8318 170.527 69.2661C170.666 67.2738 170.796 65.3276 170.916 63.5073C170.115 63.6085 169.275 63.6918 168.387 63.7289" transform="translate(0.4829864 41.22643)" id="Fill-96" fill="#EFEFEF" stroke="none" />
    </g>
    <g id="Group-101" transform="translate(48.94775 203.7753)">
      <path d="M21.2874 0.933871L0 142.798L48.1641 28.8545L30.9845 174.19L79.0441 0L21.2874 0.933871Z" transform="translate(0.0740352 0.07982977)" id="Fill-99" fill="url(#gradient_3)" stroke="none" />
    </g>
    <path d="M3.08371 18.3583C3.08371 18.3583 6.60984 16.9489 5.80353 12.8205C5.80353 12.8205 16.3812 13.828 13.5609 4.4638C10.7398 -4.89968 1.47178 1.94709 1.37125 11.4111C1.27072 20.8757 -2.75875 17.5531 3.48652 23.0903C9.73248 28.6281 10.337 35.5754 20.6125 29.9371C30.8879 24.2987 19.9831 16.0143 19.9831 16.0143C19.9831 16.0143 12.8902 16.1141 11.1433 22.8886C11.1433 22.8886 6.35163 19.9466 4.09107 20.7745L3.08371 18.3583Z" transform="translate(84.01563 89.6786)" id="Fill-102" fill="#434141" stroke="none" />
    <g id="Group-106" transform="translate(21.3457 126.6983)">
      <path d="M4.71453e-05 44.503C0.0627064 54.7068 40.0269 76.9903 40.0269 76.9903L40.0269 76.9903L45.9369 68.3983L18.5355 47.9921L43.3279 34.2993L48.3537 81.5551L77.0985 81.5551L71.9949 20.8755L63.9352 17.7201L72.1959 12.6867L63.7335 0C63.7335 0 -0.0633007 34.2993 4.71453e-05 44.503" transform="translate(0.6100201 0.1665414)" id="Fill-104" fill="url(#gradient_4)" stroke="none" />
    </g>
    <g id="Group-109" transform="translate(101.2188 125.3219)">
      <path d="M3.22385 0.00412913L0 14.0328L8.99884 15.0397L0.210012 22.1011L6.71625 82.7002L33.0428 82.7002L29.8189 45.6475L55.3488 73.8391L89.4664 75.4508L91.6161 65.2471L56.9614 61.2198L31.163 12.6241C31.163 12.6241 23.2679 0.000688188 3.83461 0L3.83461 0C3.63148 0 3.42905 0.00137638 3.22385 0.00412913" transform="translate(0.2527028 0.3977724)" id="Fill-107" fill="url(#gradient_5)" stroke="none" />
    </g>
    <g id="Group-117" transform="translate(94.7251 132.892)">
      <path d="M5.24066 12.0577L3.74165 9.94569L5.17249 4.60191L2.02575 0L0 4.74712L2.27019 10.1219L0.624527 13.2655L3.98334 51.1227L7.20582 53.0028L8.9527 50.7201L5.24066 12.0577Z" transform="translate(0.3460958 0.6431801)" id="Fill-110" fill="#004E8F" stroke="none" />
      <path d="M1.27591 14.0955L0 0L26.8065 42.2871L1.27591 14.0955Z" transform="translate(35.28918 24.37987)" id="Fill-114" fill="#004E8F" stroke="none" />
    </g>
  </g>
</svg>