<?xml version="1.0" encoding="utf-8"?>
<svg width="20px" height="20px" viewBox="0 0 20 20" version="1.1" xmlns:xlink="http://www.w3.org/1999/xlink" xmlns="http://www.w3.org/2000/svg">
  <desc>Created with Lunacy</desc>
  <g id="united-kingdom">
    <path d="M10 20C15.5228 20 20 15.5228 20 10C20 4.47715 15.5228 0 10 0C4.47715 0 0 4.47715 0 10C0 15.5228 4.47715 20 10 20Z" id="Oval" fill="#F0F0F0" stroke="none" />
    <g id="Group" transform="translate(0.3125 0.3125)">
      <path d="M1.7227 0C0.937187 1.02199 0.344883 2.19992 0 3.47957L5.20227 3.47957L1.7227 0Z" transform="translate(0.03199219 3.599297)" id="Shape" fill="#0052B4" stroke="none" />
      <path d="M5.20219 3.47953C4.8573 2.19992 4.26496 1.02199 3.47949 0L0 3.47953L5.20219 3.47953Z" transform="translate(14.14082 3.599336)" id="Shape" fill="#0052B4" stroke="none" />
      <path d="M0 0C0.344922 1.27961 0.937227 2.45754 1.7227 3.47949L5.20215 0L0 0L0 0Z" transform="translate(0.03199219 12.29625)" id="Shape" fill="#0052B4" stroke="none" />
      <path d="M3.47953 1.72273C2.45754 0.937227 1.27965 0.344922 0 0L0 5.20223L3.47953 1.72273Z" transform="translate(12.29617 0.03199219)" id="Shape" fill="#0052B4" stroke="none" />
      <path d="M0 3.47945C1.02199 4.26496 2.19992 4.85727 3.47953 5.20219L3.47953 0L0 3.47945Z" transform="translate(3.599297 14.14082)" id="Shape" fill="#0052B4" stroke="none" />
      <path d="M3.47949 0C2.19988 0.344922 1.02195 0.937227 0 1.7227L3.47949 5.20219L3.47949 0Z" transform="translate(3.599297 0.03199219)" id="Shape" fill="#0052B4" stroke="none" />
      <path d="M0 5.20219C1.27961 4.85727 2.45754 4.26496 3.47949 3.47949L0 0L0 5.20219Z" transform="translate(12.29621 14.14082)" id="Shape" fill="#0052B4" stroke="none" />
      <path d="M0 0L3.47949 3.47953C4.26496 2.45758 4.8573 1.27961 5.20219 0L0 0Z" transform="translate(14.14082 12.29625)" id="Shape" fill="#0052B4" stroke="none" />
    </g>
    <g id="Group">
      <path d="M19.9154 8.69566L11.3044 8.69566L11.3044 8.69566L11.3044 0.0846484C10.8774 0.0290625 10.4421 0 10 0C9.55785 0 9.12262 0.0290625 8.69566 0.0846484L8.69566 8.69559L8.69566 8.69563L0.0846484 8.69563C0.0290625 9.12262 0 9.55793 0 10C0 10.4421 0.0290625 10.8774 0.0846484 11.3043L8.69559 11.3043L8.69563 11.3043L8.69563 19.9154C9.12262 19.9709 9.55785 20 10 20C10.4421 20 10.8774 19.971 11.3043 19.9154L11.3043 11.3044L11.3043 11.3044L19.9154 11.3044C19.9709 10.8774 20 10.4421 20 10C20 9.55793 19.9709 9.12262 19.9154 8.69566Z" id="Shape" fill="#D80027" stroke="none" />
      <path d="M0 3.90625e-05L0 3.90625e-05L4.46234 4.46238C4.66758 4.25723 4.86336 4.04273 5.05016 3.82039L1.22977 0L0 0L0 3.90625e-05Z" transform="translate(12.60871 12.60871)" id="Shape" fill="#D80027" stroke="none" />
      <path d="M4.46238 0L4.4623 0L0 4.4623C0.205156 4.66754 0.419648 4.86332 0.641992 5.05012L4.46238 1.22965L4.46238 0Z" transform="translate(2.928906 12.60875)" id="Shape" fill="#D80027" stroke="none" />
      <path d="M5.05016 4.46246L5.05016 4.46238L0.587812 0C0.382578 0.205156 0.186797 0.419648 0 0.641992L3.82043 4.46242L5.05016 4.46242L5.05016 4.46246Z" transform="translate(2.341133 2.928906)" id="Shape" fill="#D80027" stroke="none" />
      <path d="M2.22045e-15 5.0502L2.22045e-15 5.0502L4.46238 0.587773C4.25723 0.382539 4.04273 0.186758 3.82039 0L0 3.82043L0 5.0502L2.22045e-15 5.0502Z" transform="translate(12.60871 2.341172)" id="Shape" fill="#D80027" stroke="none" />
    </g>
  </g>
</svg>