<svg width="32" height="32" viewBox="0 0 32 32" fill="none" xmlns="http://www.w3.org/2000/svg">
<rect width="32" height="32" rx="16" fill="url(#paint0_linear)" fill-opacity="0.3"/>
<rect x="2" y="2" width="28" height="28" rx="14" fill="url(#paint1_linear)" fill-opacity="0.5"/>
<rect x="4" y="4" width="24" height="24" rx="12" fill="url(#paint2_linear)"/>
<path d="M20.5 15C20.5 18.5 16 21.5 16 21.5C16 21.5 11.5 18.5 11.5 15C11.5 13.8065 11.9741 12.6619 12.818 11.818C13.6619 10.9741 14.8065 10.5 16 10.5C17.1935 10.5 18.3381 10.9741 19.182 11.818C20.0259 12.6619 20.5 13.8065 20.5 15Z" fill="white"/>
<path d="M16 16.5C16.8284 16.5 17.5 15.8284 17.5 15C17.5 14.1716 16.8284 13.5 16 13.5C15.1716 13.5 14.5 14.1716 14.5 15C14.5 15.8284 15.1716 16.5 16 16.5Z" fill="#F97878"/>
<defs>
<linearGradient id="paint0_linear" x1="32" y1="32" x2="0" y2="0" gradientUnits="userSpaceOnUse">
<stop stop-color="#EA3372"/>
<stop offset="1" stop-color="#F97878"/>
</linearGradient>
<linearGradient id="paint1_linear" x1="30" y1="30" x2="2" y2="2" gradientUnits="userSpaceOnUse">
<stop stop-color="#EA3372"/>
<stop offset="1" stop-color="#F97878"/>
</linearGradient>
<linearGradient id="paint2_linear" x1="28" y1="28" x2="4" y2="4" gradientUnits="userSpaceOnUse">
<stop stop-color="#EA3372"/>
<stop offset="1" stop-color="#F97878"/>
</linearGradient>
</defs>
</svg>
